<svg xmlns="http://www.w3.org/2000/svg" xmlns:xlink="http://www.w3.org/1999/xlink" width="223.269" height="131.336" viewBox="0 0 223.269 131.336">
  <defs>
    <linearGradient id="linear-gradient" x1="0.385" y1="0.529" x2="0.641" y2="0.438" gradientUnits="objectBoundingBox">
      <stop offset="0" stop-color="#93bf1f"/>
      <stop offset="1" stop-color="#0079c1"/>
    </linearGradient>
  </defs>
  <g id="logo" transform="translate(0)">
    <g id="Groupe_1" data-name="Groupe 1" transform="translate(0 57.367)">
      <path id="Tracé_1" data-name="Tracé 1" d="M49.608,5.5H40.237V1.064H37.01V11.085a.949.949,0,0,0,.291.7.969.969,0,0,0,.693.288h2.243V7.456a.707.707,0,0,1,.217-.531A.719.719,0,0,1,41,6.7h8.611v4.385a.954.954,0,0,0,.291.7.978.978,0,0,0,.7.288h2.25V1.064H49.608Zm22.63-3.039a10.287,10.287,0,0,0-2.828-1.23,13.6,13.6,0,0,0-6.922,0,10.51,10.51,0,0,0-2.842,1.23,6.645,6.645,0,0,0-1.921,1.833,3.984,3.984,0,0,0,0,4.531,6.566,6.566,0,0,0,1.921,1.829,10.572,10.572,0,0,0,2.842,1.233,13.153,13.153,0,0,0,3.456.445,13.141,13.141,0,0,0,3.467-.445,10.356,10.356,0,0,0,2.828-1.233,6.351,6.351,0,0,0,1.925-1.831,3.948,3.948,0,0,0,0-4.529,6.415,6.415,0,0,0-1.924-1.833ZM71.01,8.343A4.605,4.605,0,0,1,69.84,9.8a5.845,5.845,0,0,1-1.752,1,6.532,6.532,0,0,1-4.286,0,5.835,5.835,0,0,1-1.74-1,4.769,4.769,0,0,1-1.173-1.464,3.794,3.794,0,0,1-.428-1.779,3.748,3.748,0,0,1,.428-1.777,4.741,4.741,0,0,1,1.173-1.471,5.711,5.711,0,0,1,1.74-.991,6.438,6.438,0,0,1,4.289,0,5.712,5.712,0,0,1,1.75.991A4.6,4.6,0,0,1,71.01,4.78a3.946,3.946,0,0,1,0,3.563ZM93.149,1.819a5.978,5.978,0,0,0-1.839-.588,13.841,13.841,0,0,0-2.23-.167H79.046V11.083a.96.96,0,0,0,.288.7.976.976,0,0,0,.7.288H82.27V8.36h6.81a13.65,13.65,0,0,0,2.229-.175,6.1,6.1,0,0,0,1.84-.6,3.358,3.358,0,0,0,1.259-1.121,3.15,3.15,0,0,0,.46-1.757,3.166,3.166,0,0,0-.46-1.762,3.32,3.32,0,0,0-1.259-1.131ZM91.907,5.854a2.07,2.07,0,0,1-.65.76,2.837,2.837,0,0,1-.974.419,5.725,5.725,0,0,1-1.2.128H82.27V2.25h6.81a5.524,5.524,0,0,1,1.2.124,2.75,2.75,0,0,1,.976.422,2.044,2.044,0,0,1,.647.754A2.538,2.538,0,0,1,92.138,4.7a2.591,2.591,0,0,1-.231,1.158Zm7.128,5.229a.964.964,0,0,0,.288.7.974.974,0,0,0,.7.288h2.238V1.064H99.036ZM121.784,1.064H105.992v1.2h5.848v8.823a.95.95,0,0,0,.293.7.963.963,0,0,0,.691.288h2.252V3.023a.738.738,0,0,1,.219-.539.7.7,0,0,1,.544-.222h5.945Zm8.129,0-8.14,11.006h2.041l.031-.048c.262-.358.518-.7.773-1.047.213-.281.427-.579.651-.887s.42-.571.58-.783.29-.382.394-.5a1.4,1.4,0,0,1,.294-.249.749.749,0,0,1,.279-.086c.1-.005.239-.013.4-.013h8.163l2.651,3.609H142L133.88,1.064Zm-2.384,5.978,3.4-4.605,3.385,4.605Zm22.1,3.856a.759.759,0,0,1-.762-.757V1.064h-3.236V10.27a1.721,1.721,0,0,0,.138.7,1.865,1.865,0,0,0,.391.57,1.623,1.623,0,0,0,.578.383,1.6,1.6,0,0,0,.682.145H159.5V10.9Z" transform="translate(3.121 -0.784)" fill="#0079c1" fill-rule="evenodd"/>
      <path id="Tracé_2" data-name="Tracé 2" d="M162.623,42.98h-5.65a2.875,2.875,0,0,1-2.058-.828,2.825,2.825,0,0,1-.833-2.022v-9.17H135.435a1.061,1.061,0,0,0-1.069,1.06V42.98h-5.648a2.832,2.832,0,0,1-2.849-2.851V17.044h8.5v9.94h19.715v-9.94h8.541Zm-56.492.7c-1.082,0-2.212-.037-3.365-.115a36.094,36.094,0,0,1-7.859-1.286A25.981,25.981,0,0,1,88.394,39.5a15.2,15.2,0,0,1-4.512-4.129,9.186,9.186,0,0,1,0-10.739,15.1,15.1,0,0,1,4.512-4.119,25.125,25.125,0,0,1,6.512-2.769,37.363,37.363,0,0,1,7.859-1.31,47.776,47.776,0,0,1,7.465.114,58.519,58.519,0,0,1,5.939.882c1.021.211,2.049.447,3.033.722l.653.185v5.552l-1.251-.535c-1.056-.462-2.131-.875-3.19-1.238-.829-.266-1.741-.536-2.7-.8a30.792,30.792,0,0,0-3.036-.628,32.369,32.369,0,0,0-3.314-.36,28.517,28.517,0,0,0-3.477.041,16.942,16.942,0,0,0-4.642.983,13.36,13.36,0,0,0-3.717,2.086A9.964,9.964,0,0,0,92.063,26.4a7.725,7.725,0,0,0,0,7.192,9.828,9.828,0,0,0,2.464,2.958,13.043,13.043,0,0,0,3.725,2.1,16.534,16.534,0,0,0,4.644,1.015,22.787,22.787,0,0,0,3.457.035c1.142-.067,2.257-.19,3.325-.357s2.072-.382,3.036-.639,1.875-.517,2.7-.795c1.059-.359,2.13-.779,3.188-1.235l1.253-.548V41.7l-.653.182c-.99.269-2.011.514-3.035.731-1.664.335-3.664.632-5.937.861a39.492,39.492,0,0,1-4.1.2M76.052,24.558a15.318,15.318,0,0,0-4.5-4.276,23.92,23.92,0,0,0-6.506-2.826,31.018,31.018,0,0,0-15.846,0,24.069,24.069,0,0,0-6.532,2.826,15.545,15.545,0,0,0-4.495,4.276,9.578,9.578,0,0,0,0,10.877A15.383,15.383,0,0,0,42.672,39.7,23.659,23.659,0,0,0,49.2,42.545a31.305,31.305,0,0,0,15.846,0,23.89,23.89,0,0,0,6.506-2.829,15.326,15.326,0,0,0,4.5-4.281,9.571,9.571,0,0,0-.005-10.877M67.894,33.7a9.888,9.888,0,0,1-2.471,3.068A12.549,12.549,0,0,1,61.7,38.888a13.979,13.979,0,0,1-9.169,0,12.256,12.256,0,0,1-3.7-2.112,10,10,0,0,1-2.471-3.087,8.056,8.056,0,0,1,0-7.388,10,10,0,0,1,2.471-3.09,12.359,12.359,0,0,1,3.7-2.1,13.743,13.743,0,0,1,9.169,0,12.371,12.371,0,0,1,3.719,2.111A9.941,9.941,0,0,1,67.894,26.3a8.286,8.286,0,0,1,0,7.4M8.545,42.98H2.852A2.836,2.836,0,0,1,0,40.129V16.993H32.6V20.98H8.545v5.983H31.466v3.969H9.612a1,1,0,0,0-.756.312A.982.982,0,0,0,8.545,32Z" transform="translate(0 0.527)" fill="#003357" fill-rule="evenodd"/>
    </g>
    <g id="Groupe_28" data-name="Groupe 28" transform="translate(175.769 0)">
      <path id="Tracé_3" data-name="Tracé 3" d="M11.745,101.833c-3.826-19.5-12.968-51.266,19.8-70.346h0c10.313-6,14.286-12.784,15.533-18.435h0A25.224,25.224,0,0,0,47.6,8.194h0a14.024,14.024,0,0,0-.519-4.078h0A15.617,15.617,0,0,0,46.039.879h0C-13.488,25.658-3.439,59.592,11.745,101.833" transform="translate(-0.099 -0.879)" fill-rule="evenodd" fill="url(#linear-gradient)"/>
      <g id="Groupe_2" data-name="Groupe 2" transform="translate(7.505 50.068)">
        <path id="Tracé_4" data-name="Tracé 4" d="M4.159,50.925a53.679,53.679,0,0,1-.282,30.4C32.2,38.51,9.4,25.334,4.741.053-3.9,17.281,1.449,37.141,4.159,50.925" transform="translate(-0.021 -0.053)" fill="#003357" fill-rule="evenodd"/>
        <path id="Tracé_5" data-name="Tracé 5" d="M11.4,15.525C7.087,7.243,27.048,7.794,33.057,2.971c-3.573,13.214-18.04,19.51-21.66,12.554" transform="translate(0.888 0.193)" fill="#003357" fill-rule="evenodd"/>
      </g>
    </g>
  </g>
</svg>
